<?xml version="1.0" encoding="UTF-8"?>
<svg id="_Слой_1" data-name="Слой 1" xmlns="http://www.w3.org/2000/svg" version="1.1" viewBox="0 0 913.85 446.24">
  <defs>
    <style>
      .cls-1 {
        fill: #000;
        stroke-width: 0px;
      }
    </style>
  </defs>
  <path class="cls-1" d="M702.28,157.99c-.64,26.13-2.89,47.25-12.12,67.13-11.79,25.38-31.49,39.65-59.11,43.54-15.46,2.17-29.51-.96-42.8-9.06-7.16-4.37-15.41-7.07-22.23-11.87-16.09-11.33-25.32-27.92-31.74-46-9.47-26.65-14.54-54.25-13-82.52,2.25-41.46,23.53-71.42,67.78-80.27,23.23-4.65,46.54-2.44,65.59,13.56,21.69,18.22,39.63,39.56,44.11,68.89,2.08,13.6,2.68,27.43,3.53,36.6ZM638.05,146.09c0-4.33.32-8.69-.06-12.99-.91-10.1-2.25-20.21-8.48-28.67-1.62-2.19-4.44-4.34-7.02-4.84-10.57-2.02-18.84,2.86-25.16,10.69-9,11.16-11,24.61-10.64,38.49.49,18.73,6.86,35.94,14.18,52.84.58,1.34,2.81,2.69,4.34,2.77,11.95.64,23.93-7.71,27.72-19.54,4.03-12.57,5.75-25.54,5.12-38.76ZM675.33,81.27c0,1.02-.14,1.55.02,1.96,7.23,19.38,8.9,39.69,9.56,60.07.67,20.82-2.28,41.3-6.87,61.6-5.79,25.65-20.27,43.62-45.48,51.95-7.86,2.59-16.22,3.65-24.35,5.41,6.81.97,13.74,1.55,20.61,1.17,20.2-1.1,36.62-9.39,48.42-26.24,11.14-15.91,16.29-33.76,17.94-52.89,2.06-23.8,1.35-47.48-3.21-70.94-2.34-12.07-8.01-22.62-16.64-32.1ZM613.3,94.07c-18.04-2.28-36.58,9.44-41.15,25.88-6.88,24.69-2.73,48.18,9.44,70.37,3.61,6.58,8.25,9.93,13.51,11.25-.5-1.32-.95-2.55-1.42-3.76-7.39-19.22-14.04-38.58-11.68-59.72,2.22-19.95,9.44-36.42,31.3-44.01Z"/>
  <path class="cls-1" d="M423.91,229.69c1.16,8.18,2.25,16.36,3.48,24.53,2.51,16.71,5.1,33.4,7.62,50.1.79,5.24,1.13,10.58,2.34,15.73.81,3.46-.51,4.79-3.35,5.24-13.25,2.12-26.5,4.22-39.8,6.03-1.83.25-4.1-.78-5.78-1.84-1.93-1.22-3.2-3.5-5.15-4.67-10.22-6.09-10.69-16.04-11.31-26.33-.83-13.75-2.37-27.45-3.63-41.17-1.07-11.57-2.11-23.14-3.28-34.7-1.52-15.02-3.17-30.02-4.72-45.04-1.46-14.2-2.88-28.4-4.26-42.61-1.07-11.07-2.05-22.14-3.08-33.21-.23-2.48-.16-4.56,3.02-5.28,25.1-5.67,50.41-10.12,76.15-10.86,24.29-.7,42.38,10.53,54.42,31.37,8.66,14.99,15.34,30.85,17.31,48.24,2.64,23.29-4.76,42.2-25.04,55.15-3.48,2.22-7.06,4.28-10.97,6.64,7.13,8.94,13.92,17.94,21.22,26.51,12.28,14.42,24.83,28.6,37.38,42.79,2.08,2.34,4.82,4.08,7.11,6.26,2.47,2.34,2.73,4.56-.92,6.08-10.82,4.51-21.57,9.22-32.53,13.36-2,.76-5.31-.11-7.27-1.38-11.36-7.36-19.55-17.78-27.01-28.88-11.87-17.64-23.9-35.16-35.76-52.79-2-2.97-3.51-6.27-5.24-9.42-.31.05-.62.1-.93.15ZM419.24,177.04c5.95-2.71,11.58-4.75,16.68-7.71,8.16-4.73,14.62-11.25,15.5-21.22.25-2.77-1.24-7.86-2.86-8.28-10.81-2.8-21.66-2.17-31.91,2.8-.84.41-1.61,2.15-1.49,3.15,1.21,10.16,2.62,20.29,4.08,31.25ZM455.74,210.7c2.45,3.24,4.68,5.92,6.59,8.81,1.51,2.29,2.85,2.37,5.32,1.21,8.29-3.88,15.22-9.45,21.04-16.36,11.83-14.04,12.4-33.25,6.9-49.14-2.17,26.9-15.58,45.06-39.84,55.47ZM410.99,220.65c.13,2.77.1,5.24.38,7.67,1.17,10.04,2.54,20.05,3.64,30.09,1.5,13.67,3.32,27.33,4.03,41.04.44,8.32,5.28,12.02,12,15.61-4.73-31.78-9.39-63.07-14.05-94.41h-6ZM486,307.81c3.01,2.61,5.47,5.1,8.31,7.05,1.49,1.03,3.95,1.99,5.45,1.46,9.37-3.28,18.6-6.99,28.75-10.9-4.89-4.32-8.69-7.68-11.86-10.49-10.42,4.38-20.24,8.5-30.65,12.87ZM399.08,133.81c1.63,13.7,2.93,26.36,4.71,38.96.99,7.02,1.34,6.98,8.23,5.59.42-.09.78-.51,1.62-1.08-1.13-8.7-3.2-17.56-3.16-26.41.04-8.24-4.65-12.18-11.4-17.05ZM426.71,320.63c.09-.54.18-1.08.28-1.62-3.18-1.88-6.36-5.33-9.55-5.35-11.51-.07-23.03,1.03-34.54,1.68l-.39,1.22c4.35,2.8,6.11,9.57,12.55,8.88,10.6-1.14,21.11-3.16,31.66-4.8ZM441.41,131.41c-11.75-5.78-24.8-4.24-38.56-2.7,2.16,2.17,3.85,3.55,5.15,5.24,3,3.89,6.19,3.85,10.79,2.39,7.4-2.35,15.23-3.39,22.62-4.93Z"/>
  <path class="cls-1" d="M292.43,276.41c7.95,10.65,15.59,21.06,23.41,31.33,7.66,10.05,15.28,20.14,23.35,29.85,4.77,5.74,10.39,10.78,15.64,16.12,3.63,3.7,3.55,5.05-1.38,7-10.44,4.12-21.05,7.79-31.49,11.9-3.36,1.32-5.57.21-8.12-1.76-10.27-7.96-18.11-17.93-24.93-28.9-11.48-18.46-23.25-36.74-34.8-55.15-1.9-3.03-3.28-6.39-5.72-9.38,1.8,15.51,3.6,31.01,5.41,46.52,1.74,15,3.48,30,5.23,45,.33,2.86-.81,4.25-3.77,4.6-13.17,1.53-26.31,3.33-39.5,4.69-2.11.22-5.01-.73-6.53-2.19-14.9-14.29-14.56-14.69-15.28-35.34-.75-21.45-2.37-42.86-3.67-64.29-1.04-17.1-2.09-34.19-3.26-51.28-1.17-17.09-2.55-34.16-3.71-51.25-.62-9.13-1.13-18.28-1.26-27.43-.02-1.36,2.15-3.71,3.6-3.97,12.38-2.19,24.79-4.21,37.26-5.86,8.88-1.17,17.85-1.72,26.78-2.5,28.44-2.49,51.89,6.64,66.18,34.8,6.3,12.42,11.54,25.26,13.68,39.17,2.89,18.76,1.82,36.79-12.35,51.14-5.61,5.68-12.92,9.7-19.52,14.39-1.43,1.02-3.11,1.69-5.27,2.83ZM245.28,224.21c11.74-2.79,21.73-7.11,29-16.33,3.43-4.35,5.21-9.22,4.71-14.78-.23-2.56-1.15-4.67-4.18-5.27-10.13-2.02-20.1-2.16-29.65,2.37-1.06.5-2.18,2.38-2.12,3.55.57,9.92,1.42,19.83,2.23,30.47ZM289.04,271.37c33.04-12.55,41-39.47,33.64-65.5-3.26,26.63-17.01,44.37-41.74,53.82,2.93,4.22,5.54,7.99,8.1,11.68ZM252.65,362.85c-3.56-31.33-7.11-62.55-10.69-94.06-1.94-.41-3.74-.79-5.76-1.21,0,4.18-.23,7.84.04,11.46,1.55,20.86,3.32,41.7,4.79,62.56.62,8.84.75,17.71,11.62,21.25ZM348.66,357.59c-3.84-4.51-7.15-8.41-9.78-11.5-10.68,4.05-20.65,7.84-31.19,11.84,3.04,2.6,5.49,5.14,8.37,7.01,1.7,1.1,4.37,2.06,6.13,1.53,9.11-2.75,18.07-6,26.48-8.87ZM230.68,227.33c3.91-.83,6.59-1.4,9.4-1.99-.95-10.23-2.38-19.93-2.58-29.66-.15-7.4-5.4-10.13-10.48-13.79,1.2,14.91,2.4,29.83,3.66,45.44ZM203.45,361.5c5.88,7.89,10.96,13.59,20.65,10.19,3.49-1.23,7.55-.79,11.33-1.29,4.39-.58,8.76-1.37,13.14-2.06.09-.49.18-.97.27-1.46-3.66-2.03-7.15-5.28-11.02-5.8-6.17-.82-12.57.25-18.88.4-4.77.11-9.54.02-15.5.02ZM269.13,179.97c-11.32-6.72-24.63-3.97-39.11-4.46,3.86,3.75,6.57,6.56,9.5,9.13.68.59,2.14.64,3.15.45,8.97-1.67,17.92-3.46,26.46-5.12Z"/>
  <path class="cls-1" d="M831.4,144.65c6.37,7.63,12.4,15.09,18.69,22.32,11.34,13.05,22.67,26.12,34.37,38.83,4.13,4.48,9.31,8,14.06,11.9,3.62,2.97,3.77,5.11-.39,7.07-10.59,5.01-21.29,9.8-32.15,14.19-1.92.78-5.18-.21-7.19-1.43-15.71-9.46-25.2-24.76-35.68-39.02-11.94-16.24-23.45-32.8-35.32-49.45,1.16,7.15,2.22,14.26,3.49,21.34,4.11,22.94,8.28,45.87,12.49,68.8.59,3.22-1.08,4.01-3.75,4.49-12.2,2.2-24.46,4.19-36.53,6.97-5.16,1.19-7.84-1.11-11.78-3.61-11.41-7.23-13.51-18.05-14.53-30.1-1.28-15.18-3.3-30.3-5.14-45.42-1.82-14.96-3.84-29.89-5.73-44.84-2.11-16.59-4.14-33.2-6.27-49.79-1.79-13.97-3.67-27.93-5.51-41.89-.17-1.32-.38-2.63-.47-3.95-.86-13.06-.94-13.43,11.55-16.14,22.48-4.87,44.99-9.86,68.13-10.46,23.12-.6,40.7,9.45,52.77,28.83,9.04,14.53,15.88,29.96,18.95,47.11,4.45,24.83-4.29,45.76-25.93,59.28-2.38,1.48-4.78,2.93-8.13,4.98ZM781.3,95.56c10.32-3.39,19.42-7.57,26-15.79,4.5-5.63,7.46-11.82,4.85-19.24-.41-1.17-1.64-2.69-2.71-2.89-11.55-2.18-22.66-1.08-33.1,5.29,1.63,10.67,3.26,21.42,4.97,32.63ZM858.35,72.7c-2.58,26.24-15.26,44.91-39.3,56.05,2.53,3.32,4.56,6.36,7,9,.83.9,3.09,1.58,4.06,1.09,18.83-9.58,32.94-25.85,30.81-50.35-.46-5.3-1.7-10.52-2.58-15.78ZM774.02,139.84c1.05,6.94,2.07,13.32,2.97,19.71,3.03,21.64,6,43.29,9.05,64.93.15,1.04.48,2.38,1.22,2.94,2.97,2.27,6.14,4.3,9.94,6.9-.82-4.39-1.5-7.91-2.12-11.45-4.64-26.21-9.42-52.39-13.75-78.65-.81-4.88-3.07-5.02-7.3-4.38ZM851.83,225.08c2.5,2.02,4.54,3.98,6.88,5.46,2.01,1.27,4.85,3.33,6.49,2.74,9.48-3.41,18.72-7.51,28.95-11.75-5.06-4.27-8.94-7.55-12.13-10.25-10.3,4.7-19.87,9.08-30.19,13.79ZM760.28,54.14c2.21,15.32,4.36,30.21,6.55,45.39,3.74-1.05,6.39-1.79,9-2.52-.99-7.38-1.86-14.41-2.88-21.42-1.22-8.42-1.65-17.32-12.68-21.44ZM747.34,235.52c3.49,3.03,5.73,5.2,8.2,7.05,1.61,1.21,3.71,3.02,5.31,2.76,10.81-1.74,21.55-3.95,32.31-6.01.15-.58.31-1.16.46-1.74-4.2-1.69-8.42-4.83-12.61-4.79-10.7.11-21.4,1.63-33.68,2.73ZM762.89,47.73c3.5,3.13,6.16,5.09,8.28,7.52,1.92,2.2,3.67,1.95,6.07,1.13,5.27-1.79,10.58-3.58,16.01-4.74,3.18-.68,6.62-.12,9.95-.12-12.51-7.78-25.72-4.17-40.3-3.79Z"/>
  <path class="cls-1" d="M88.06,273c9.83-1.41,18.98-2.75,28.14-4.04,3.61-.51,7.23-.98,10.86-1.31.92-.09,2.13.11,2.8.67,5.49,4.56,10.89,9.23,16.32,13.87.59,10.2,1.31,20.4,1.53,30.61.02.9-3.06,2.24-4.87,2.75-14.46,4.06-28.96,7.97-43.44,11.92-1.71.47-3.43.92-5.5,1.48,1,13.2,2,26.23,3.04,39.96,8.65-1.29,16.78-2.45,24.89-3.74,6.69-1.06,13.32-2.45,20.03-3.32,1.51-.19,3.5.87,4.8,1.92,4.27,3.45,8.15,7.39,12.51,10.69,3.82,2.9,2.67,6.89,3.09,10.51,1.05,9.07,1.88,18.17,2.77,27.26.32,3.28-.54,4.95-4.47,5.49-19.5,2.69-38.93,5.92-58.4,8.76-12.3,1.8-24.65,3.21-36.97,4.91-4.09.57-7.31-.3-10.14-3.58-4.34-5.03-9.72-9.28-13.42-14.7-2.33-3.41-2.74-8.31-3.4-12.64-3.79-24.69-7.65-49.38-11-74.14-3.07-22.65-5.53-45.38-8.23-68.09-2.56-21.56-5.05-43.13-7.66-64.68-.34-2.84.75-4,3.38-4.29,8.08-.89,16.14-1.94,24.23-2.7,21.83-2.04,43.66-3.97,65.5-5.92,4.47-.4,8.96-.61,13.42-1.1,7.11-.78,13.39.18,18.32,6.23,2.38,2.92,5.86,4.91,8.53,7.63,1.13,1.14,2.07,3.07,2.06,4.63-.05,7.47-.69,14.93-.66,22.39.01,4.37-1.09,7.11-5.69,8.44-16.16,4.69-32.18,9.89-48.39,14.42-4.42,1.24-6.23,2.33-5.38,7.48,1.15,6.99.97,14.21,1.4,22.2ZM153.67,413.34c.14-.39.27-.78.41-1.16-5.41-3.47-9.12-9.94-17.17-8.69-4.42.69-8.88,1.08-13.33,1.54-14.5,1.51-29,2.96-43.5,4.49-9.96,1.05-19.91,2.19-30.82,3.39,3.46,3.78,6.13,7.1,9.25,9.94,1.5,1.37,3.88,2.64,5.78,2.54,7.43-.4,14.86-1.11,22.22-2.16,22.4-3.18,44.77-6.57,67.16-9.88ZM136.5,224.82c-5.2-4.81-9.59-6.89-15.71-5.27-8.28,2.18-16.83,3.37-25.25,5.03-8.04,1.59-16.07,3.24-24.14,4.87.18.58.18.79.29.89,11.26,9.6,11.32,9.81,25.28,6.04,13.02-3.52,25.91-7.55,39.54-11.56ZM137.85,311.71c.06-.51.13-1.01.19-1.52-3.32-1.53-6.82-4.66-9.93-4.32-16.52,1.83-32.95,4.54-50.14,7.06,7.11,6,12.82,13.45,23.31,8.52,2.2-1.04,4.76-1.3,7.16-1.93,9.81-2.6,19.61-5.2,29.42-7.8ZM75.88,319.4c2.07,17.36,4.07,34.14,6.13,51.36,3.36-.39,6.07-.71,9.03-1.05,0-2.41.13-4.39-.02-6.36-.61-8.09-2.26-16.24-1.73-24.25.68-10.31-5.16-15.09-13.41-19.71ZM67.56,234.5c1.2,14.46,2.3,27.73,3.43,41.42,4.19-.69,7.68-1.26,11.38-1.87-.45-9.39-.83-18.32-1.38-27.24-.07-1.16-.74-2.62-1.62-3.34-3.42-2.82-7.05-5.39-11.81-8.97ZM159.29,409.07c-.83-7.99-2.36-14.74-2.02-21.39.47-9.31-6.4-12.32-11.62-17.26,0,8.87-.09,17.13.09,25.39.03,1.4.87,3.17,1.92,4.09,3.33,2.92,6.95,5.53,11.63,9.17ZM139.85,219.2c.36-4.89.75-9.63,1.06-14.37.51-7.59-3.01-12.63-10.86-15.33,0,5.24.63,10.49-.14,15.51-1.26,8.14,3.2,11.6,9.95,14.19ZM142.66,306.3c-.2-3.84-1.08-7.71-.46-11.33,1.58-9.19-4.42-13.27-11.26-18.12.41,5.45.96,10.15,1.07,14.86.24,9.84.75,10.69,10.65,14.59Z"/>
</svg>