<?xml version="1.0" encoding="UTF-8"?>
<svg id="_Слой_1" data-name="Слой 1" xmlns="http://www.w3.org/2000/svg" version="1.1" viewBox="0 0 350 350">
  <defs>
    <style>
      .cls-1 {
        stroke-linejoin: bevel;
      }

      .cls-1, .cls-2 {
        fill: #000;
        stroke: #fff;
        stroke-width: 3px;
      }

      .cls-2 {
        stroke-miterlimit: 10;
      }
    </style>
  </defs>
  <g>
    <path class="cls-2" d="M7.5,49.98v199.98c0,2.78,2.26,5.04,5.04,5.04h78.98V49.98c0-2.78-2.26-5.04-5.04-5.04H12.54c-2.78,0-5.04,2.26-5.04,5.04Z"/>
    <path class="cls-2" d="M91.53,49.98v205.02h78.98c2.78,0,5.04-2.26,5.04-5.04V49.98c0-2.78-2.26-5.04-5.04-5.04h-73.94c-2.78,0-5.04,2.26-5.04,5.04Z"/>
  </g>
  <polygon class="cls-2" points="91.53 28.13 57.92 28.13 57.92 44.94 91.53 44.94 125.14 44.94 125.14 28.13 91.53 28.13"/>
  <g>
    <polygon class="cls-1" points="91.53 61.74 57.92 44.94 57.92 28.13 91.53 44.94 91.53 61.74"/>
    <polygon class="cls-1" points="125.14 44.94 91.53 61.74 91.53 44.94 125.14 28.13 125.14 44.94"/>
  </g>
  <path class="cls-2" d="M107.83,93.35h51.41v49.41c0,1.1-.9,2-2,2h-47.41c-1.1,0-2-.9-2-2v-49.41h0Z" transform="translate(267.08 238.1) rotate(180)"/>
  <rect class="cls-2" x="107.83" y="104.21" width="51.41" height="51.41" transform="translate(267.08 259.82) rotate(180)"/>
  <g>
    <path class="cls-2" d="M75.07,299.29v22.58H7.15v-22.58c0-10.8,7.57-19.83,17.7-22.06,1.56-.35,3.21-.53,4.88-.53h22.77c1.67,0,3.31.18,4.88.53,10.13,2.23,17.7,11.26,17.7,22.06Z"/>
    <rect class="cls-2" x="7.15" y="311.72" width="67.92" height="10.15"/>
    <path class="cls-2" d="M57.37,277.23v17.8H24.85v-17.8c1.56-.35,3.21-.53,4.88-.53h22.77c1.67,0,3.31.18,4.88.53Z"/>
    <path class="cls-2" d="M175.9,299.29v22.58h-67.92v-22.58c0-10.8,7.57-19.83,17.7-22.06,1.56-.35,3.21-.53,4.88-.53h22.77c1.67,0,3.31.18,4.88.53,10.13,2.23,17.7,11.26,17.7,22.06Z"/>
    <rect class="cls-2" x="107.98" y="311.72" width="67.92" height="10.15"/>
    <path class="cls-2" d="M158.2,277.23v17.8h-32.52v-17.8c1.56-.35,3.21-.53,4.88-.53h22.77c1.67,0,3.31.18,4.88.53Z"/>
  </g>
  <polygon class="cls-2" points="199.75 25.97 189.75 325.97 244.75 325.97 264.75 137.78 264.75 44.94 264.75 137.78 284.75 325.97 339.75 325.97 329.75 25.97 199.75 25.97"/>
  <rect class="cls-2" x="199.75" y="24.94" width="130" height="20"/>
  <rect class="cls-2" x="249.72" y="24.94" width="30.07" height="20"/>
</svg>