<?xml version="1.0" encoding="UTF-8"?>
<svg id="_Слой_1" data-name="Слой 1" xmlns="http://www.w3.org/2000/svg" version="1.1" viewBox="0 0 350 350">
  <defs>
    <style>
      .cls-1 {
        stroke-linecap: round;
        stroke-linejoin: round;
      }

      .cls-1, .cls-2 {
        fill: #000;
        stroke: #fff;
        stroke-width: 3px;
      }

      .cls-2 {
        stroke-miterlimit: 10;
      }
    </style>
  </defs>
  <path class="cls-2" d="M282.49,68.46l-48.36-38.69c-.35-.28-.8-.44-1.25-.44h-26.51c-1.05,0-1.93.82-1.99,1.87-.97,16.17-14.38,28.98-30.8,28.98s-29.83-12.82-30.8-28.98c-.06-1.05-.94-1.87-1.99-1.87h-26.48c-.47,0-.93.17-1.29.48l-45.54,38.65c-.62.53-.86,1.38-.6,2.16l8.64,25.91c.45,1.34,2.11,1.81,3.19.89l33.93-28.79c1.26-1.07,3.2-.24,3.29,1.41l4.45,77.41c.06,1.06.94,1.89,2,1.89h102.44c1.06,0,1.94-.83,2-1.89l4.48-77.92c.09-1.62,1.98-2.46,3.25-1.45l36.82,29.46c1.09.87,2.71.39,3.15-.93l8.65-25.96c.26-.79,0-1.67-.65-2.19Z"/>
  <rect class="cls-2" x="120.47" y="149.33" width="106.28" height="10.53" rx="2" ry="2"/>
  <path class="cls-2" d="M264.41,304.77l-89.2,9.72c-.14.02-.29.02-.43,0l-91.98-9.73c-1.23-.13-2.04-1.33-1.72-2.52l39.38-144.39h106.28l39.38,144.4c.32,1.19-.49,2.38-1.71,2.51Z"/>
  <path class="cls-1" d="M196.74,177.23l39.41,144.51c.31,1.15-.44,2.31-1.61,2.5l-59.24,9.59c-.21.03-.42.03-.63,0l-62.01-9.61c-1.18-.18-1.94-1.35-1.62-2.5l39.41-144.5"/>
</svg>