<?xml version="1.0" encoding="UTF-8"?>
<svg id="_Слой_1" data-name="Слой 1" xmlns="http://www.w3.org/2000/svg" version="1.1" viewBox="0 0 350 350">
  <defs>
    <style>
      .cls-1 {
        fill: #000;
      }

      .cls-1, .cls-2 {
        stroke-width: 0px;
      }

      .cls-2, .cls-3 {
        fill: #fff;
      }

      .cls-3 {
        stroke: #fff;
        stroke-miterlimit: 10;
        stroke-width: 2px;
      }
    </style>
  </defs>
  <g id="_Электроника" data-name="Электроника">
    <g>
      <rect class="cls-1" x="147.24" y="167.15" width="23.6" height="125.9"/>
      <path class="cls-2" d="M169.33,168.65v122.9h-20.6v-122.9h20.6M172.33,165.65h-26.6v128.9h26.6v-128.9h0Z"/>
    </g>
    <g>
      <polygon class="cls-1" points="159.05 263.32 226.8 323.6 159.92 298.71 92.8 323.69 159.05 263.32"/>
      <path class="cls-2" d="M159.06,265.34l60.77,54.07-58.86-21.91-1.05-.39-1.05.39-59.34,22.08,59.53-54.25M159.03,261.3l-72.97,66.49,73.85-27.48,73.85,27.48-74.74-66.49h0Z"/>
    </g>
    <g>
      <rect class="cls-1" x="4.04" y="55.55" width="309.98" height="173.05" rx="13.5" ry="13.5"/>
      <path class="cls-2" d="M300.52,57.05c6.62,0,12,5.38,12,12v146.05c0,6.62-5.38,12-12,12H17.54c-6.62,0-12-5.38-12-12V69.05c0-6.62,5.38-12,12-12h282.98M300.52,54.05H17.54c-8.28,0-15,6.72-15,15v146.05c0,8.28,6.72,15,15,15h282.98c8.28,0,15-6.72,15-15V69.05c0-8.28-6.72-15-15-15h0Z"/>
    </g>
    <g>
      <rect class="cls-1" x="256.09" y="146.3" width="89.86" height="176.01" rx="11.5" ry="11.5"/>
      <path class="cls-2" d="M334.46,147.8c5.51,0,10,4.49,10,10v153.01c0,5.51-4.49,10-10,10h-66.86c-5.51,0-10-4.49-10-10v-153.01c0-5.51,4.49-10,10-10h66.86M334.46,144.8h-66.86c-7.18,0-13,5.82-13,13v153.01c0,7.18,5.82,13,13,13h66.86c7.18,0,13-5.82,13-13v-153.01c0-7.18-5.82-13-13-13h0Z"/>
    </g>
    <rect class="cls-3" x="291.35" y="150.01" width="19.36" height="3.3" rx="1.29" ry="1.29"/>
  </g>
</svg>